<?xml version="1.0" encoding="UTF-8" standalone="no"?>
<!-- Created with Inkscape (http://www.inkscape.org/) -->

<svg
   xmlns:dc="http://purl.org/dc/elements/1.1/"
   xmlns:cc="http://creativecommons.org/ns#"
   xmlns:rdf="http://www.w3.org/1999/02/22-rdf-syntax-ns#"
   xmlns:svg="http://www.w3.org/2000/svg"
   xmlns="http://www.w3.org/2000/svg"
   xmlns:sodipodi="http://sodipodi.sourceforge.net/DTD/sodipodi-0.dtd"
   xmlns:inkscape="http://www.inkscape.org/namespaces/inkscape"
   width="200"
   height="170"
   id="svg3109"
   version="1.1"
   inkscape:version="0.48.5 r10040"
   sodipodi:docname="AA-Words-Bottom.svg">
  <defs
     id="defs3111" />
  <sodipodi:namedview
     id="base"
     pagecolor="#ffffff"
     bordercolor="#666666"
     borderopacity="1.0"
     inkscape:pageopacity="0.0"
     inkscape:pageshadow="2"
     inkscape:zoom="0.98994949"
     inkscape:cx="467.52564"
     inkscape:cy="258.23426"
     inkscape:document-units="px"
     inkscape:current-layer="layer1"
     showgrid="false"
     showguides="true"
     inkscape:guide-bbox="true"
     inkscape:window-width="1280"
     inkscape:window-height="742"
     inkscape:window-x="-2"
     inkscape:window-y="-3"
     inkscape:window-maximized="1" />
  <metadata
     id="metadata3114">
    <rdf:RDF>
      <cc:Work
         rdf:about="">
        <dc:format>image/svg+xml</dc:format>
        <dc:type
           rdf:resource="http://purl.org/dc/dcmitype/StillImage" />
        <dc:title />
      </cc:Work>
    </rdf:RDF>
  </metadata>
  <g
     inkscape:label="Layer 1"
     inkscape:groupmode="layer"
     id="layer1"
     transform="translate(0,-882.36218)">
    <path
       inkscape:connector-curvature="0"
       style="font-size:9.44861317px;font-style:normal;font-variant:normal;font-weight:bold;font-stretch:normal;fill:#800000;fill-opacity:1;font-family:Eurostile LT ExtendedTwo;-inkscape-font-specification:Eurostile LT ExtendedTwo Bold"
       d="m 88.083507,912.38312 -38.128335,76.70712 17.701627,0 7.792342,-16.19274 4.166409,0 5.697858,-11.84612 -4.166416,0 16.913404,-35.13304 17.026014,35.13304 -4.27903,0 5.69786,11.84612 4.32406,0 7.85989,16.19274 17.67912,0 -38.33104,-76.70712 -19.953763,0 z"
       id="path5413" />
    <path
       style="fill:#800000;fill-opacity:1;stroke:none"
       d="m 91.979685,963.91155 -0.157648,0.11262 -3.017842,6.01315 18.512405,0 -3.01784,-6.01315 -0.15765,-0.11262 z"
       id="path5395"
       inkscape:connector-curvature="0"
       sodipodi:nodetypes="ccccccc" />
    <path
       inkscape:connector-curvature="0"
       id="path5415"
       style="font-size:9.44861317px;font-style:normal;font-variant:normal;font-weight:bold;font-stretch:normal;fill:#333333;font-family:Eurostile LT ExtendedTwo;-inkscape-font-specification:Eurostile LT ExtendedTwo Bold"
       d="m 105.97472,947.99972 -15.82869,0 -16.158435,33.63599 10.412269,0 13.660525,-27.11487 13.660461,27.11487 10.41231,0 z"
       sodipodi:nodetypes="cccccccc" />
    <path
       inkscape:connector-curvature="0"
       style="font-size:medium;font-style:normal;font-variant:normal;font-weight:normal;font-stretch:normal;text-indent:0;text-align:start;text-decoration:none;line-height:normal;letter-spacing:normal;word-spacing:normal;text-transform:none;direction:ltr;block-progression:tb;writing-mode:lr-tb;text-anchor:start;baseline-shift:baseline;color:#000000;fill:#333333;fill-opacity:1;stroke:none;stroke-width:3.10819125;marker:none;visibility:visible;display:inline;overflow:visible;enable-background:accumulate;font-family:Sans;-inkscape-font-specification:Sans"
       d="m 50.383065,903.28455 c -0.164354,0.005 -0.328931,0.0283 -0.495466,0.0676 l -0.788238,0.18017 c -1.332234,0.31421 -2.138413,1.64056 -1.824213,2.9728 l 5.968114,25.35883 c 0.314201,1.33224 1.640552,2.13842 2.972794,1.82421 l 0.788237,-0.18016 c 1.332242,-0.31419 2.160939,-1.64055 1.846738,-2.97279 l -2.56741,-10.85522 c 28.175983,-8.47996 56.364379,-6.82231 84.747179,-0.0225 l -2.56743,10.87772 c -0.31419,1.33225 0.51451,2.6586 1.84675,2.97279 l 0.78824,0.18018 c 1.33222,0.31421 2.65859,-0.49199 2.9728,-1.82422 l 5.96811,-25.35884 c 0.31419,-1.33223 -0.49197,-2.65859 -1.82421,-2.9728 l -0.78826,-0.18016 c -1.33223,-0.31421 -2.65859,0.49197 -2.97279,1.82422 l -2.4548,10.4273 c -14.34587,-3.43395 -28.75702,-5.60902 -43.173092,-5.83298 -14.485678,-0.22507 -28.971538,1.51459 -43.48839,5.8555 l -2.477335,-10.44987 c -0.274916,-1.16572 -1.326826,-1.92719 -2.477328,-1.8918 z m -6.283408,1.48639 c -0.164354,0.005 -0.328931,0.0284 -0.495459,0.0677 l -0.788245,0.18017 c -1.332242,0.31422 -2.16093,1.64056 -1.846737,2.9728 l 5.990638,25.35885 c 0.314201,1.33224 1.640559,2.13841 2.972794,1.82421 l 0.788237,-0.18017 c 1.332242,-0.3142 2.138422,-1.64056 1.824213,-2.9728 l -5.968105,-25.35884 c -0.274923,-1.1657 -1.326835,-1.92717 -2.477336,-1.89178 z m 109.115083,0 c -1.15048,-0.0354 -2.2024,0.72608 -2.47732,1.89178 l -5.96811,25.35886 c -0.3142,1.33224 0.49197,2.65858 1.82422,2.97278 l 0.78823,0.18018 c 1.33224,0.3142 2.65861,-0.49199 2.97281,-1.82421 l 5.99062,-25.35886 c 0.3142,-1.33223 -0.51449,-2.65859 -1.84673,-2.97279 l -0.78824,-0.18016 c -0.16653,-0.0393 -0.33111,-0.0625 -0.49548,-0.0676 z m -115.398482,1.4864 c -0.164356,0.005 -0.351457,0.0282 -0.517992,0.0676 l -0.788238,0.18018 c -1.332242,0.3142 -2.138413,1.64056 -1.82422,2.97278 l 5.968113,25.35885 c 0.3142,1.33224 1.64056,2.13842 2.972794,1.82421 l 0.788245,-0.18016 c 1.332235,-0.31419 2.160939,-1.64056 1.846738,-2.9728 L 40.27106,908.14914 c -0.274924,-1.1657 -1.30431,-1.92717 -2.454802,-1.89177 z m 121.704412,0 c -1.15048,-0.0354 -2.2024,0.72608 -2.47732,1.89178 l -5.99063,25.35884 c -0.3142,1.33224 0.51449,2.6586 1.84673,2.9728 l 0.78824,0.18018 c 1.33224,0.3142 2.6586,-0.49199 2.9728,-1.82421 l 5.96811,-25.35886 c 0.3142,-1.33223 -0.49198,-2.6586 -1.82422,-2.9728 l -0.78823,-0.18014 c -0.16652,-0.0393 -0.33111,-0.0625 -0.49548,-0.0676 z"
       id="path4744-3" />
    <path
       d="m 24.592379,1033.621 4.328543,0 1.134501,-2.234 7.854222,0 1.204319,2.234 4.311093,0 -6.946631,-12.6364 -5.04415,0 z m 9.355243,-9.7043 2.513353,4.7475 -4.95689,0 z"
       style="font-size:15.72555065px;font-style:normal;font-variant:normal;font-weight:bold;font-stretch:normal;fill:#333333;font-family:Eurostile LT ExtendedTwo;-inkscape-font-specification:Eurostile LT ExtendedTwo Bold"
       id="path3201"
       inkscape:connector-curvature="0" />
    <path
       d="m 43.894646,1024.1262 5.445579,0 0,9.4948 3.874756,0 0,-9.4948 5.445594,0 0,-3.1416 -14.765929,0 z"
       style="font-size:15.72555065px;font-style:normal;font-variant:normal;font-weight:bold;font-stretch:normal;fill:#333333;font-family:Eurostile LT ExtendedTwo;-inkscape-font-specification:Eurostile LT ExtendedTwo Bold"
       id="path3203"
       inkscape:connector-curvature="0" />
    <path
       d="m 60.364705,1033.621 3.874749,0 0,-4.7823 8.1684,0 0,4.7823 3.874732,0 0,-12.6364 -3.874732,0 0,4.503 -8.1684,0 0,-4.503 -3.874749,0 z"
       style="font-size:15.72555065px;font-style:normal;font-variant:normal;font-weight:bold;font-stretch:normal;fill:#333333;font-family:Eurostile LT ExtendedTwo;-inkscape-font-specification:Eurostile LT ExtendedTwo Bold"
       id="path3205"
       inkscape:connector-curvature="0" />
    <path
       d="m 78.909632,1033.621 12.584188,0 0,-3.2463 -8.709447,0 0,-9.3901 -3.874741,0 z"
       style="font-size:15.72555065px;font-style:normal;font-variant:normal;font-weight:bold;font-stretch:normal;fill:#333333;font-family:Eurostile LT ExtendedTwo;-inkscape-font-specification:Eurostile LT ExtendedTwo Bold"
       id="path3207"
       inkscape:connector-curvature="0" />
    <path
       d="m 93.125111,1033.621 14.050349,0 0,-3.037 -10.175584,0 0,-2.0245 9.425074,0 0,-2.6181 -9.425074,0 0,-2.0247 9.948684,0 0,-2.9321 -13.823449,0 z"
       style="font-size:15.72555065px;font-style:normal;font-variant:normal;font-weight:bold;font-stretch:normal;fill:#333333;font-family:Eurostile LT ExtendedTwo;-inkscape-font-specification:Eurostile LT ExtendedTwo Bold"
       id="path3209"
       inkscape:connector-curvature="0" />
    <path
       d="m 108.59734,1024.1262 5.44559,0 0,9.4948 3.87476,0 0,-9.4948 5.44557,0 0,-3.1416 -14.76592,0 z"
       style="font-size:15.72555065px;font-style:normal;font-variant:normal;font-weight:bold;font-stretch:normal;fill:#333333;font-family:Eurostile LT ExtendedTwo;-inkscape-font-specification:Eurostile LT ExtendedTwo Bold"
       id="path3211"
       inkscape:connector-curvature="0" />
    <path
       d="m 125.27685,1033.621 3.87474,0 0,-12.6364 -3.87474,0 z"
       style="font-size:15.72555065px;font-style:normal;font-variant:normal;font-weight:bold;font-stretch:normal;fill:#333333;font-family:Eurostile LT ExtendedTwo;-inkscape-font-specification:Eurostile LT ExtendedTwo Bold"
       id="path3213"
       inkscape:connector-curvature="0" />
    <path
       d="m 131.70838,1029.1878 c 0.014,1.8094 0.50544,3.0341 1.47485,3.6741 0.96942,0.6398 2.33372,0.9394 4.09293,0.8988 l 6.24847,0 c 1.89699,-0.027 3.16021,-0.3934 3.78967,-1.104 0.62939,-0.7104 0.91956,-1.6107 0.87047,-2.701 l 0,-1.1868 -3.87472,0 c 0.0144,0.76 -0.14546,1.2473 -0.47999,1.4618 -0.33453,0.2145 -0.93087,0.3091 -1.78901,0.2836 l -4.13656,0 c -0.89414,0.011 -1.49267,-0.1835 -1.79556,-0.5781 -0.30289,-0.3945 -0.44327,-1.0454 -0.42107,-1.9526 l 0,-1.3614 c -0.0264,-0.7927 0.12253,-1.4108 0.44726,-1.8545 0.3247,-0.4437 0.98431,-0.669 1.97883,-0.6764 l 4.22382,0 c 0.57959,-0.011 1.02613,0.074 1.33957,0.2444 0.31344,0.1708 0.47198,0.4793 0.47563,0.925 l 0,0.3491 3.87474,0 c 0.0367,-1.1852 -0.0852,-2.127 -0.36525,-2.8255 -0.28013,-0.6985 -0.8686,-1.1982 -1.7654,-1.4993 -0.89684,-0.3009 -2.25201,-0.4476 -4.06547,-0.44 l -4.55543,0 c -1.75921,-0.041 -3.12351,0.2589 -4.09293,0.8987 -0.96941,0.6402 -1.46102,1.8646 -1.47485,3.6741 z"
       style="font-size:15.72555065px;font-style:normal;font-variant:normal;font-weight:bold;font-stretch:normal;fill:#333333;font-family:Eurostile LT ExtendedTwo;-inkscape-font-specification:Eurostile LT ExtendedTwo Bold"
       id="path3215"
       inkscape:connector-curvature="0" />
    <path
       d="m 151.84745,1030.3573 c -0.0146,1.3405 0.368,2.2504 1.14759,2.7293 0.7796,0.4789 2.04356,0.7035 3.79184,0.6741 l 4.69508,0 c 1.69872,0.014 3.00603,-0.077 3.92194,-0.2709 0.91589,-0.1946 1.54573,-0.5784 1.88953,-1.1513 0.3438,-0.5728 0.50691,-1.4194 0.48937,-2.5398 0.0198,-1.2095 -0.17511,-2.1049 -0.58503,-2.6861 -0.40996,-0.581 -1.15446,-0.9566 -2.23343,-1.1266 -1.07906,-0.1701 -2.61217,-0.243 -4.59942,-0.2192 -1.36486,0.013 -2.37997,0 -3.04537,-0.038 -0.66541,-0.036 -1.10004,-0.136 -1.30387,-0.2973 -0.20383,-0.1611 -0.29585,-0.4217 -0.27603,-0.782 0.007,-0.3386 0.14182,-0.5866 0.4058,-0.744 0.26399,-0.1575 0.61743,-0.2354 1.06032,-0.2335 l 4.29365,0 c 0.85741,0 1.39412,0.1002 1.6101,0.3075 0.21598,0.2085 0.30762,0.5424 0.27491,1.0015 l 3.87474,0 0,-0.4014 c 0.0225,-0.7439 -0.0689,-1.3952 -0.27408,-1.9536 -0.20516,-0.5583 -0.65852,-0.9936 -1.36011,-1.3058 -0.70161,-0.3121 -1.78589,-0.4707 -3.25287,-0.4757 l -5.41068,0 c -1.60147,0.011 -2.76592,0.1882 -3.49336,0.5417 -0.72745,0.3534 -1.18341,0.834 -1.36786,1.4415 -0.18446,0.6076 -0.26289,1.2963 -0.2353,2.0661 -0.0278,1.025 0.10138,1.814 0.38787,2.3673 0.28636,0.5531 0.89659,0.9336 1.83069,1.1414 0.93412,0.2081 2.35886,0.3067 4.27426,0.2961 1.63871,0 2.84884,0.014 3.63039,0.058 0.78152,0.045 1.28576,0.1515 1.51268,0.3188 0.22687,0.1673 0.32771,0.4313 0.30251,0.792 -0.0178,0.4718 -0.19164,0.7716 -0.52142,0.8987 -0.32981,0.1274 -0.70871,0.1826 -1.13667,0.1658 l -4.74744,0 c -0.55744,0.024 -0.97416,-0.05 -1.25013,-0.2202 -0.27601,-0.1707 -0.41782,-0.58 -0.42544,-1.2285 l -3.87476,0 z"
       style="font-size:15.72555065px;font-style:normal;font-variant:normal;font-weight:bold;font-stretch:normal;fill:#333333;font-family:Eurostile LT ExtendedTwo;-inkscape-font-specification:Eurostile LT ExtendedTwo Bold"
       id="path3217"
       inkscape:connector-curvature="0" />
    <path
       d="m 15.309418,1015.5127 4.32852,0 1.134485,-2.2339 7.854167,0 1.204302,2.2339 4.311069,0 -6.946574,-12.6363 -5.044119,0 z m 9.35518,-9.7041 2.513338,4.7473 -4.95685,0 z"
       style="font-size:15.72555065px;font-style:normal;font-variant:normal;font-weight:bold;font-stretch:normal;fill:#333333;font-family:Eurostile LT ExtendedTwo;-inkscape-font-specification:Eurostile LT ExtendedTwo Bold"
       id="path3219"
       inkscape:connector-curvature="0" />
    <path
       d="m 39.411309,1006.0181 6.056435,0 c 0.608684,-0.015 1.058119,0.066 1.348297,0.2442 0.290154,0.1775 0.434141,0.5382 0.431977,1.0822 l 0,0.4189 c 0.0055,0.4523 -0.101816,0.7869 -0.322891,1.0035 -0.221098,0.2168 -0.590536,0.3245 -1.108313,0.3228 l -6.405505,0 z m -3.874716,9.4946 3.874716,0 0,-3.2812 6.091336,0 c 0.593056,-0.011 1.008304,0.1185 1.245759,0.384 0.237431,0.2653 0.351607,0.725 0.342529,1.3788 l 0,1.5184 3.874725,0 0,-2.1467 c -0.01601,-1.0119 -0.224008,-1.7109 -0.62397,-2.0968 -0.400002,-0.3856 -0.895977,-0.6176 -1.487932,-0.6957 l 0,-0.034 c 0.869036,-0.2069 1.452277,-0.5653 1.749734,-1.0757 0.297425,-0.51 0.4356,-1.1872 0.414526,-2.0311 l 0,-0.803 c 0.0287,-1.1488 -0.229462,-2.0578 -0.774505,-2.7271 -0.545083,-0.669 -1.549401,-1.0108 -3.012944,-1.0253 l -11.693974,0 z"
       style="font-size:15.72555065px;font-style:normal;font-variant:normal;font-weight:bold;font-stretch:normal;fill:#333333;font-family:Eurostile LT ExtendedTwo;-inkscape-font-specification:Eurostile LT ExtendedTwo Bold"
       id="path3221"
       inkscape:connector-curvature="0" />
    <path
       d="m 53.638213,1015.5127 3.769991,0 0,-9.0759 0.03481,0 5.079026,9.0759 2.897316,0 5.079027,-9.0759 0.03481,0 0,9.0759 3.769991,0 0,-12.6363 -5.951702,0 -4.380879,8.1333 -4.380879,-8.1333 -5.951709,0 z"
       style="font-size:15.72555065px;font-style:normal;font-variant:normal;font-weight:bold;font-stretch:normal;fill:#333333;font-family:Eurostile LT ExtendedTwo;-inkscape-font-specification:Eurostile LT ExtendedTwo Bold"
       id="path3223"
       inkscape:connector-curvature="0" />
    <path
       d="m 76.694583,1012.249 c -0.01451,1.3406 0.367964,2.2505 1.147567,2.7293 0.779588,0.479 2.043543,0.7036 3.791818,0.6742 l 4.69504,0 c 1.698715,0.015 3.006014,-0.077 3.921914,-0.271 0.915877,-0.1946 1.545706,-0.5782 1.889527,-1.1512 0.343789,-0.5729 0.506883,-1.4194 0.489338,-2.5398 0.01982,-1.2095 -0.175082,-2.1048 -0.585009,-2.686 -0.409968,-0.5812 -1.154449,-0.9566 -2.233436,-1.1268 -1.079026,-0.17 -2.612149,-0.243 -4.599376,-0.219 -1.364836,0.013 -2.379952,0 -3.045347,-0.037 -0.665396,-0.036 -1.100012,-0.1362 -1.303844,-0.2975 -0.203853,-0.1611 -0.295861,-0.4219 -0.276041,-0.7822 0.0063,-0.3385 0.141815,-0.5864 0.405805,-0.744 0.263991,-0.1573 0.617429,-0.2351 1.060307,-0.2334 l 4.293612,0 c 0.857405,0 1.394107,0.1002 1.610108,0.3076 0.215984,0.2084 0.307612,0.5422 0.274892,1.0014 l 3.874716,0 0,-0.4014 c 0.02244,-0.7439 -0.06897,-1.395 -0.274075,-1.9535 -0.205162,-0.5585 -0.65853,-0.9937 -1.360102,-1.3058 -0.701613,-0.312 -1.785887,-0.4706 -3.252848,-0.4757 l -5.410654,0 c -1.601426,0.011 -2.765865,0.1882 -3.493323,0.5417 -0.727451,0.3535 -1.183396,0.834 -1.367841,1.4415 -0.184453,0.6076 -0.262888,1.2963 -0.235313,2.066 -0.02791,1.025 0.101496,1.8142 0.387863,2.3671 0.286372,0.5533 0.896611,0.9339 1.830698,1.1419 0.934087,0.2077 2.35883,0.3063 4.274218,0.2959 1.638706,0 2.848819,0.014 3.630366,0.06 0.781522,0.045 1.28575,0.1514 1.512659,0.3186 0.226886,0.1674 0.327728,0.4313 0.302538,0.7921 -0.01783,0.4718 -0.191651,0.7716 -0.521439,0.8988 -0.329813,0.1273 -0.708709,0.1824 -1.136674,0.1658 l -4.747399,0 c -0.557427,0.024 -0.974134,-0.05 -1.25012,-0.2204 -0.275986,-0.1705 -0.417809,-0.58 -0.425436,-1.2283 l -3.874709,0 z"
       style="font-size:15.72555065px;font-style:normal;font-variant:normal;font-weight:bold;font-stretch:normal;fill:#333333;font-family:Eurostile LT ExtendedTwo;-inkscape-font-specification:Eurostile LT ExtendedTwo Bold"
       id="path3225"
       inkscape:connector-curvature="0" />
    <path
       d="m 94.098064,1006.0181 5.445524,0 0,9.4946 3.874732,0 0,-9.4946 5.44556,0 0,-3.1417 -14.765816,0 z"
       style="font-size:15.72555065px;font-style:normal;font-variant:normal;font-weight:bold;font-stretch:normal;fill:#333333;font-family:Eurostile LT ExtendedTwo;-inkscape-font-specification:Eurostile LT ExtendedTwo Bold"
       id="path3227"
       inkscape:connector-curvature="0" />
    <path
       d="m 114.44272,1006.0181 6.05642,0 c 0.60869,-0.015 1.05812,0.066 1.3483,0.2442 0.29015,0.1775 0.43414,0.5382 0.43198,1.0822 l 0,0.4189 c 0.005,0.4523 -0.10191,0.7869 -0.32289,1.0035 -0.22109,0.2168 -0.59052,0.3245 -1.1083,0.3228 l -6.40551,0 z m -3.87473,9.4946 3.87473,0 0,-3.2812 6.09133,0 c 0.59307,-0.011 1.00831,0.1185 1.24577,0.384 0.23743,0.2653 0.35159,0.725 0.34252,1.3788 l 0,1.5184 3.87472,0 0,-2.1467 c -0.016,-1.0119 -0.22401,-1.7109 -0.62396,-2.0968 -0.40001,-0.3856 -0.89598,-0.6176 -1.48793,-0.6957 l 0,-0.034 c 0.86902,-0.2069 1.45226,-0.5653 1.74973,-1.0757 0.29742,-0.51 0.4356,-1.1872 0.41452,-2.0311 l 0,-0.803 c 0.0288,-1.1488 -0.22946,-2.0578 -0.77451,-2.7271 -0.54508,-0.669 -1.54938,-1.0108 -3.01294,-1.0253 l -11.69398,0 z"
       style="font-size:15.72555065px;font-style:normal;font-variant:normal;font-weight:bold;font-stretch:normal;fill:#333333;font-family:Eurostile LT ExtendedTwo;-inkscape-font-specification:Eurostile LT ExtendedTwo Bold"
       id="path3229"
       inkscape:connector-curvature="0" />
    <path
       d="m 128.39035,1011.0795 c 0.0138,1.8094 0.50543,3.0341 1.47485,3.674 0.9694,0.6399 2.33368,0.9397 4.09288,0.899 l 6.21354,0 c 1.75916,0.04 3.12343,-0.2591 4.09287,-0.899 0.96939,-0.6399 1.461,-1.8646 1.47484,-3.674 l 0,-3.7698 c -0.0138,-1.8094 -0.50545,-3.0342 -1.47484,-3.6741 -0.96944,-0.64 -2.33371,-0.9396 -4.09287,-0.899 l -6.21354,0 c -1.7592,-0.041 -3.12348,0.259 -4.09288,0.899 -0.96942,0.6399 -1.46103,1.8647 -1.47485,3.6741 z m 3.97945,-2.5655 c -0.0264,-0.7928 0.12254,-1.4109 0.44726,-1.8546 0.32469,-0.4437 0.9843,-0.669 1.97881,-0.6764 l 4.53794,0 c 0.99449,0.011 1.6541,0.2327 1.97882,0.6764 0.3247,0.4437 0.47377,1.0618 0.44725,1.8546 l 0,1.3613 c 0.0223,0.9071 -0.11818,1.5581 -0.42107,1.9526 -0.30291,0.3945 -0.90141,0.5873 -1.79555,0.5781 l -4.95685,0 c -0.89415,0.011 -1.49266,-0.1836 -1.79554,-0.5781 -0.3029,-0.3945 -0.44327,-1.0455 -0.42107,-1.9526 z"
       style="font-size:15.72555065px;font-style:normal;font-variant:normal;font-weight:bold;font-stretch:normal;fill:#333333;font-family:Eurostile LT ExtendedTwo;-inkscape-font-specification:Eurostile LT ExtendedTwo Bold"
       id="path3231"
       inkscape:connector-curvature="0" />
    <path
       d="m 148.06665,1015.5127 3.87472,0 0,-9.1806 0.0349,0 7.2782,9.1806 6.00406,0 0,-12.6363 -3.87472,0 0,9.1806 -0.0349,0 -7.27819,-9.1806 -6.00407,0 z"
       style="font-size:15.72555065px;font-style:normal;font-variant:normal;font-weight:bold;font-stretch:normal;fill:#333333;font-family:Eurostile LT ExtendedTwo;-inkscape-font-specification:Eurostile LT ExtendedTwo Bold"
       id="path3233"
       inkscape:connector-curvature="0" />
    <path
       d="m 167.59349,1011.0795 c 0.0138,1.8094 0.50543,3.0341 1.47485,3.674 0.9694,0.6399 2.33368,0.9397 4.09289,0.899 l 4.66013,0 c 1.45079,0.02 2.63722,-0.039 3.55926,-0.1798 0.92201,-0.14 1.60162,-0.4818 2.03884,-1.0253 0.43719,-0.5433 0.65396,-1.4101 0.65032,-2.5998 l 0,-3.5956 -8.69194,0 0,2.6182 4.81722,0 0,0.3666 c -0.0211,0.5918 -0.232,0.9744 -0.6327,1.1475 -0.40072,0.1731 -0.8647,0.2502 -1.39192,0.2312 l -4.13654,0 c -0.95776,0.024 -1.61228,-0.1434 -1.96355,-0.5063 -0.35124,-0.3627 -0.51706,-1.0726 -0.4974,-2.1291 l 0,-1.5708 c -0.0196,-1.0568 0.14616,-1.7665 0.4974,-2.1294 0.35127,-0.363 1.00579,-0.5316 1.96355,-0.5064 l 4.20635,0 c 0.62359,-0.02 1.10428,0.06 1.44212,0.2357 0.33777,0.1769 0.50867,0.5696 0.51269,1.1782 l 3.8049,0 0,-0.4015 c 0.0196,-0.8246 -0.0874,-1.5392 -0.32127,-2.1435 -0.23381,-0.6044 -0.71196,-1.0718 -1.43443,-1.4028 -0.72252,-0.3307 -1.80702,-0.4985 -3.25351,-0.503 l -5.82952,0 c -1.75921,-0.041 -3.12349,0.259 -4.09289,0.899 -0.96942,0.6399 -1.46104,1.8647 -1.47485,3.6741 z"
       style="font-size:15.72555065px;font-style:normal;font-variant:normal;font-weight:bold;font-stretch:normal;fill:#333333;font-family:Eurostile LT ExtendedTwo;-inkscape-font-specification:Eurostile LT ExtendedTwo Bold"
       id="path3235"
       inkscape:connector-curvature="0" />
  </g>
</svg>
