<?xml version="1.0" encoding="utf-8"?>
<!-- Generator: Adobe Illustrator 18.0.0, SVG Export Plug-In . SVG Version: 6.00 Build 0)  -->
<!DOCTYPE svg PUBLIC "-//W3C//DTD SVG 1.1//EN" "http://www.w3.org/Graphics/SVG/1.1/DTD/svg11.dtd">
<svg version="1.1"
	 id="svg3109" xmlns:rdf="http://www.w3.org/1999/02/22-rdf-syntax-ns#" xmlns:svg="http://www.w3.org/2000/svg" xmlns:sodipodi="http://sodipodi.sourceforge.net/DTD/sodipodi-0.dtd" xmlns:cc="http://creativecommons.org/ns#" xmlns:dc="http://purl.org/dc/elements/1.1/" xmlns:inkscape="http://www.inkscape.org/namespaces/inkscape" sodipodi:docname="AA-Words-Bottom.svg" inkscape:version="0.48.5 r10040"
	 xmlns="http://www.w3.org/2000/svg" xmlns:xlink="http://www.w3.org/1999/xlink" x="0px" y="0px" viewBox="0 18 402.5 44"
	 enable-background="new 0 18 402.5 44" xml:space="preserve">
<sodipodi:namedview  bordercolor="#666666" showgrid="false" inkscape:cy="258.23426" pagecolor="#ffffff" showguides="true" inkscape:cx="467.52564" inkscape:zoom="0.98994949" borderopacity="1.0" id="base" inkscape:pageopacity="0.0" inkscape:window-width="1280" inkscape:document-units="px" inkscape:guide-bbox="true" inkscape:window-x="-2" inkscape:pageshadow="2" inkscape:window-height="742" inkscape:window-y="-3" inkscape:window-maximized="1" inkscape:current-layer="layer1">
	</sodipodi:namedview>
<g id="layer1" transform="translate(0,-882.36218)" inkscape:label="Layer 1" inkscape:groupmode="layer">
	<path id="path3201" inkscape:connector-curvature="0" fill="#333333" d="M216.5,930.3h4.3l1.1-2.2h7.9l1.2,2.2h4.3l-6.9-12.6h-5
		L216.5,930.3z M225.8,920.6l2.5,4.7h-5L225.8,920.6z"/>
	<path id="path3203" inkscape:connector-curvature="0" fill="#333333" d="M235.8,920.8h5.4v9.5h3.9v-9.5h5.4v-3.1h-14.8V920.8z"/>
	<path id="path3205" inkscape:connector-curvature="0" fill="#333333" d="M252.2,930.3h3.9v-4.8h8.2v4.8h3.9v-12.6h-3.9v4.5h-8.2
		v-4.5h-3.9L252.2,930.3z"/>
	<path id="path3207" inkscape:connector-curvature="0" fill="#333333" d="M270.8,930.3h12.6v-3.2h-8.7v-9.4h-3.9V930.3z"/>
	<path id="path3209" inkscape:connector-curvature="0" fill="#333333" d="M285,930.3h14.1v-3h-10.2v-2h9.4v-2.6h-9.4v-2h9.9v-2.9
		H285V930.3z"/>
	<path id="path3211" inkscape:connector-curvature="0" fill="#333333" d="M300.5,920.8h5.4v9.5h3.9v-9.5h5.4v-3.1h-14.8V920.8z"/>
	<path id="path3213" inkscape:connector-curvature="0" fill="#333333" d="M317.2,930.3h3.9v-12.6h-3.9L317.2,930.3z"/>
	<path id="path3215" inkscape:connector-curvature="0" fill="#333333" d="M323.6,925.9c0,1.8,0.5,3,1.5,3.7c1,0.6,2.3,0.9,4.1,0.9
		h6.2c1.9,0,3.2-0.4,3.8-1.1c0.6-0.7,0.9-1.6,0.9-2.7v-1.2h-3.9c0,0.8-0.1,1.2-0.5,1.5s-0.9,0.3-1.8,0.3h-4.1
		c-0.9,0-1.5-0.2-1.8-0.6c-0.3-0.4-0.4-1-0.4-2v-1.4c0-0.8,0.1-1.4,0.4-1.9c0.3-0.4,1-0.7,2-0.7h4.2c0.6,0,1,0.1,1.3,0.2
		c0.3,0.2,0.5,0.5,0.5,0.9v0.3h3.9c0-1.2-0.1-2.1-0.4-2.8c-0.3-0.7-0.9-1.2-1.8-1.5c-0.9-0.3-2.3-0.4-4.1-0.4h-4.6
		c-1.8,0-3.1,0.3-4.1,0.9c-1,0.6-1.5,1.9-1.5,3.7L323.6,925.9z"/>
	<path id="path3217" inkscape:connector-curvature="0" fill="#333333" d="M343.7,927c0,1.3,0.4,2.3,1.1,2.7s2,0.7,3.8,0.7h4.7
		c1.7,0,3-0.1,3.9-0.3c0.9-0.2,1.5-0.6,1.9-1.2c0.3-0.6,0.5-1.4,0.5-2.5c0-1.2-0.2-2.1-0.6-2.7c-0.4-0.6-1.2-1-2.2-1.1
		c-1.1-0.2-2.6-0.2-4.6-0.2c-1.4,0-2.4,0-3,0c-0.7,0-1.1-0.1-1.3-0.3c-0.2-0.2-0.3-0.4-0.3-0.8c0-0.3,0.1-0.6,0.4-0.7
		c0.3-0.2,0.6-0.2,1.1-0.2h4.3c0.9,0,1.4,0.1,1.6,0.3c0.2,0.2,0.3,0.5,0.3,1h3.9v-0.4c0-0.7-0.1-1.4-0.3-2c-0.2-0.6-0.7-1-1.4-1.3
		c-0.7-0.3-1.8-0.5-3.3-0.5h-5.4c-1.6,0-2.8,0.2-3.5,0.5c-0.7,0.4-1.2,0.8-1.4,1.4c-0.2,0.6-0.3,1.3-0.2,2.1c0,1,0.1,1.8,0.4,2.4
		c0.3,0.6,0.9,0.9,1.8,1.1c0.9,0.2,2.4,0.3,4.3,0.3c1.6,0,2.8,0,3.6,0.1c0.8,0,1.3,0.2,1.5,0.3c0.2,0.2,0.3,0.4,0.3,0.8
		c0,0.5-0.2,0.8-0.5,0.9c-0.3,0.1-0.7,0.2-1.1,0.2h-4.7c-0.6,0-1-0.1-1.3-0.2c-0.3-0.2-0.4-0.6-0.4-1.2h-3.9V927z"/>
	<path id="path3219" inkscape:connector-curvature="0" fill="#333333" d="M31.8,930.3h4.3l1.1-2.2h7.9l1.2,2.2h4.3l-6.9-12.6h-5
		L31.8,930.3z M41.1,920.6l2.5,4.7h-5L41.1,920.6z"/>
	<path id="path3221" inkscape:connector-curvature="0" fill="#333333" d="M55.9,920.8h6.1c0.6,0,1.1,0.1,1.3,0.2
		c0.3,0.2,0.4,0.5,0.4,1.1v0.4c0,0.5-0.1,0.8-0.3,1c-0.2,0.2-0.6,0.3-1.1,0.3h-6.4L55.9,920.8z M52,930.3h3.9V927H62
		c0.6,0,1,0.1,1.2,0.4c0.2,0.3,0.4,0.7,0.3,1.4v1.5h3.9v-2.1c0-1-0.2-1.7-0.6-2.1c-0.4-0.4-0.9-0.6-1.5-0.7v0
		c0.9-0.2,1.5-0.6,1.7-1.1c0.3-0.5,0.4-1.2,0.4-2v-0.8c0-1.1-0.2-2.1-0.8-2.7c-0.5-0.7-1.5-1-3-1H52V930.3z"/>
	<path id="path3223" inkscape:connector-curvature="0" fill="#333333" d="M70.1,930.3h3.8v-9.1h0l5.1,9.1h2.9l5.1-9.1h0v9.1h3.8
		v-12.6h-6l-4.4,8.1l-4.4-8.1h-6L70.1,930.3z"/>
	<path id="path3225" inkscape:connector-curvature="0" fill="#333333" d="M93.2,927c0,1.3,0.4,2.3,1.1,2.7c0.8,0.5,2,0.7,3.8,0.7
		h4.7c1.7,0,3-0.1,3.9-0.3c0.9-0.2,1.5-0.6,1.9-1.2c0.3-0.6,0.5-1.4,0.5-2.5c0-1.2-0.2-2.1-0.6-2.7c-0.4-0.6-1.2-1-2.2-1.1
		c-1.1-0.2-2.6-0.2-4.6-0.2c-1.4,0-2.4,0-3,0c-0.7,0-1.1-0.1-1.3-0.3c-0.2-0.2-0.3-0.4-0.3-0.8c0-0.3,0.1-0.6,0.4-0.7
		c0.3-0.2,0.6-0.2,1.1-0.2h4.3c0.9,0,1.4,0.1,1.6,0.3c0.2,0.2,0.3,0.5,0.3,1h3.9v-0.4c0-0.7-0.1-1.4-0.3-2c-0.2-0.6-0.7-1-1.4-1.3
		c-0.7-0.3-1.8-0.5-3.3-0.5h-5.4c-1.6,0-2.8,0.2-3.5,0.5c-0.7,0.4-1.2,0.8-1.4,1.4c-0.2,0.6-0.3,1.3-0.2,2.1c0,1,0.1,1.8,0.4,2.4
		c0.3,0.6,0.9,0.9,1.8,1.1c0.9,0.2,2.4,0.3,4.3,0.3c1.6,0,2.8,0,3.6,0.1c0.8,0,1.3,0.2,1.5,0.3c0.2,0.2,0.3,0.4,0.3,0.8
		c0,0.5-0.2,0.8-0.5,0.9c-0.3,0.1-0.7,0.2-1.1,0.2h-4.7c-0.6,0-1,0-1.3-0.2c-0.3-0.2-0.4-0.6-0.4-1.2h-3.9V927z"/>
	<path id="path3227" inkscape:connector-curvature="0" fill="#333333" d="M110.6,920.8h5.4v9.5h3.9v-9.5h5.4v-3.1h-14.8V920.8z"/>
	<path id="path3229" inkscape:connector-curvature="0" fill="#333333" d="M130.9,920.8h6.1c0.6,0,1.1,0.1,1.3,0.2
		c0.3,0.2,0.4,0.5,0.4,1.1v0.4c0,0.5-0.1,0.8-0.3,1c-0.2,0.2-0.6,0.3-1.1,0.3h-6.4V920.8z M127,930.3h3.9V927h6.1
		c0.6,0,1,0.1,1.2,0.4c0.2,0.3,0.4,0.7,0.3,1.4v1.5h3.9v-2.1c0-1-0.2-1.7-0.6-2.1c-0.4-0.4-0.9-0.6-1.5-0.7v0
		c0.9-0.2,1.5-0.6,1.7-1.1c0.3-0.5,0.4-1.2,0.4-2v-0.8c0-1.1-0.2-2.1-0.8-2.7c-0.5-0.7-1.5-1-3-1H127L127,930.3z"/>
	<path id="path3231" inkscape:connector-curvature="0" fill="#333333" d="M144.9,925.9c0,1.8,0.5,3,1.5,3.7c1,0.6,2.3,0.9,4.1,0.9
		h6.2c1.8,0,3.1-0.3,4.1-0.9c1-0.6,1.5-1.9,1.5-3.7v-3.8c0-1.8-0.5-3-1.5-3.7c-1-0.6-2.3-0.9-4.1-0.9h-6.2c-1.8,0-3.1,0.3-4.1,0.9
		c-1,0.6-1.5,1.9-1.5,3.7V925.9z M148.8,923.3c0-0.8,0.1-1.4,0.4-1.9c0.3-0.4,1-0.7,2-0.7h4.5c1,0,1.7,0.2,2,0.7
		c0.3,0.4,0.5,1.1,0.4,1.9v1.4c0,0.9-0.1,1.6-0.4,2c-0.3,0.4-0.9,0.6-1.8,0.6h-5c-0.9,0-1.5-0.2-1.8-0.6c-0.3-0.4-0.4-1-0.4-2V923.3
		z"/>
	<path id="path3233" inkscape:connector-curvature="0" fill="#333333" d="M164.5,930.3h3.9v-9.2h0l7.3,9.2h6v-12.6h-3.9v9.2h0
		l-7.3-9.2h-6V930.3z"/>
	<path id="path3235" inkscape:connector-curvature="0" fill="#333333" d="M184.1,925.9c0,1.8,0.5,3,1.5,3.7c1,0.6,2.3,0.9,4.1,0.9
		h4.7c1.5,0,2.6,0,3.6-0.2c0.9-0.1,1.6-0.5,2-1c0.4-0.5,0.7-1.4,0.7-2.6V923h-8.7v2.6h4.8v0.4c0,0.6-0.2,1-0.6,1.1
		c-0.4,0.2-0.9,0.3-1.4,0.2h-4.1c-1,0-1.6-0.1-2-0.5c-0.4-0.4-0.5-1.1-0.5-2.1v-1.6c0-1.1,0.1-1.8,0.5-2.1c0.4-0.4,1-0.5,2-0.5h4.2
		c0.6,0,1.1,0.1,1.4,0.2c0.3,0.2,0.5,0.6,0.5,1.2h3.8v-0.4c0-0.8-0.1-1.5-0.3-2.1c-0.2-0.6-0.7-1.1-1.4-1.4
		c-0.7-0.3-1.8-0.5-3.3-0.5h-5.8c-1.8,0-3.1,0.3-4.1,0.9c-1,0.6-1.5,1.9-1.5,3.7L184.1,925.9z"/>
</g>
</svg>
